<?xml version="1.0" standalone="no"?>
<!DOCTYPE svg PUBLIC "-//W3C//DTD SVG 20010904//EN"
 "http://www.w3.org/TR/2001/REC-SVG-20010904/DTD/svg10.dtd">
<svg version="1.0" xmlns="http://www.w3.org/2000/svg"
 width="736.000000pt" height="736.000000pt" viewBox="0 0 736.000000 736.000000"
 preserveAspectRatio="xMidYMid meet">

<g transform="translate(0.000000,736.000000) scale(0.100000,-0.100000)"
fill="#000000" stroke="none">
<path d="M1950 5478 c-183 -12 -334 -53 -505 -139 -294 -146 -469 -362 -589
-724 -49 -146 -66 -252 -66 -401 0 -304 102 -560 309 -776 207 -218 425 -314
791 -349 467 -44 824 113 1168 516 246 288 302 436 302 803 0 167 -3 201 -24
284 -75 294 -252 485 -620 668 -92 46 -148 66 -231 85 -107 23 -324 47 -395
43 -19 -1 -82 -6 -140 -10z m410 -43 c154 -25 238 -52 370 -121 176 -92 274
-160 361 -251 164 -172 239 -371 239 -632 -1 -364 -65 -537 -305 -821 -152
-179 -291 -294 -460 -380 -177 -90 -310 -120 -535 -120 -286 0 -547 68 -741
192 -226 144 -422 459 -469 751 -15 88 -8 328 10 392 68 243 136 405 223 535
42 62 191 208 257 252 139 91 327 166 495 198 131 24 419 26 555 5z"/>
<path d="M1705 4607 c-113 -38 -165 -87 -205 -193 -26 -72 -27 -183 -1 -240
43 -95 158 -179 260 -191 96 -11 243 39 311 107 45 45 75 109 90 189 26 142
-35 250 -175 312 -60 27 -220 36 -280 16z"/>
<path d="M5030 5413 c-194 -8 -346 -43 -531 -123 -187 -81 -302 -179 -427
-363 -151 -221 -223 -411 -238 -622 -12 -168 48 -398 141 -539 167 -255 339
-387 652 -502 218 -79 400 -105 600 -85 231 22 409 72 598 167 208 105 323
205 453 397 156 229 204 375 205 617 0 107 -4 152 -21 220 -59 229 -227 472
-416 602 -168 116 -493 213 -746 224 -63 2 -135 6 -160 7 -25 1 -74 1 -110 0z
m452 -57 c212 -39 459 -136 584 -228 122 -91 282 -322 339 -487 75 -221 55
-492 -50 -701 -55 -109 -180 -288 -253 -363 -247 -252 -708 -405 -1109 -368
-155 15 -245 37 -394 96 -251 101 -362 177 -505 348 -99 118 -163 237 -200
373 -24 87 -28 118 -28 254 -1 155 -1 155 37 265 95 271 278 528 458 643 116
74 345 157 505 182 93 14 514 5 616 -14z"/>
<path d="M5164 4707 c-158 -41 -244 -150 -252 -320 -4 -83 -3 -91 27 -152 35
-70 86 -120 160 -157 40 -20 61 -23 156 -23 103 0 114 2 177 32 82 39 159 108
189 171 18 38 23 65 23 138 1 81 -2 96 -29 149 -16 32 -46 71 -66 87 -80 64
-276 102 -385 75z"/>
<path d="M1144 2886 c-18 -47 77 -194 212 -330 254 -256 595 -456 1049 -615
167 -59 536 -164 681 -195 577 -121 1224 -39 1984 254 300 115 563 261 815
450 188 142 406 387 388 438 -7 18 -50 15 -263 -18 -281 -45 -592 -86 -870
-114 -997 -104 -1529 -118 -2480 -65 -452 25 -833 75 -1249 163 -220 47 -259
52 -267 32z"/>
</g>
</svg>
